<svg xmlns="http://www.w3.org/2000/svg" width="256" height="256" viewBox="0 0 100 100"><rect width="100" height="100" rx="20" fill="#2e4b85"></rect><path d="M11.35 40.90Q10.51 40.90 9.93 40.37Q9.36 39.84 9.36 39.02L9.36 39.02Q9.36 38.21 9.93 37.68Q10.51 37.15 11.35 37.15L11.35 37.15Q12.21 37.15 12.79 37.68Q13.36 38.21 13.36 39.02L13.36 39.02Q13.36 39.84 12.79 40.37Q12.21 40.90 11.35 40.90L11.35 40.90ZM8.21 62.85Q6.89 62.85 6.07 62.22Q5.24 61.59 5.24 60.72L5.24 60.72Q5.24 60.00 5.77 59.63L5.77 59.63Q6.14 60.00 6.70 60.21Q7.26 60.42 7.90 60.42L7.90 60.42Q9.97 60.42 9.97 58.23L9.97 58.23L9.97 44.65Q9.97 43.64 10.66 43.20Q11.35 42.75 12.75 42.75L12.75 42.75L12.75 58.29Q12.75 60.28 11.53 61.56Q10.31 62.85 8.21 62.85L8.21 62.85ZM21.71 57.25Q19.38 57.25 17.90 55.98Q16.41 54.70 16.41 52.58L16.41 52.58Q16.41 50.42 17.98 49.13Q19.55 47.84 22.04 47.84L22.04 47.84Q24.67 47.84 26.38 49.64L26.38 49.64L26.49 49.52Q26.13 49.13 25.74 48.80L25.74 48.80L25.74 47.84Q25.74 46.50 24.87 45.76Q24.00 45.02 22.43 45.02L22.43 45.02Q19.61 45.02 18.35 47.20L18.35 47.20Q17.81 46.98 17.49 46.57Q17.17 46.16 17.17 45.74L17.17 45.74Q17.17 44.96 17.93 44.27Q18.68 43.59 19.94 43.17Q21.20 42.75 22.63 42.75L22.63 42.75Q25.37 42.75 26.94 44.09Q28.51 45.44 28.51 47.76L28.51 47.76L28.51 55.21Q28.51 56.27 27.87 56.76Q27.22 57.25 25.88 57.25L25.88 57.25L25.88 55.99Q26.47 55.35 26.52 55.26L26.52 55.26L26.41 55.15Q25.49 56.22 24.35 56.73Q23.22 57.25 21.71 57.25L21.71 57.25ZM22.29 55.12Q23.95 55.12 24.87 54.45Q25.79 53.78 25.79 52.58L25.79 52.58Q25.79 51.37 24.87 50.67Q23.95 49.97 22.35 49.97L22.35 49.97Q20.87 49.97 20.00 50.67Q19.13 51.37 19.13 52.58L19.13 52.58Q19.13 53.78 19.97 54.45Q20.81 55.12 22.29 55.12L22.29 55.12ZM32.07 57.25L32.07 45.02Q32.07 42.75 34.75 42.75L34.75 42.75L34.75 44.51Q34.47 44.79 34.14 45.30L34.14 45.30L34.28 45.41Q35.12 44.20 36.45 43.48Q37.78 42.75 39.35 42.75L39.35 42.75Q41.59 42.75 42.90 44.11Q44.22 45.46 44.22 47.59L44.22 47.59L44.22 55.35Q44.22 56.33 43.53 56.79Q42.85 57.25 41.45 57.25L41.45 57.25L41.45 47.93Q41.45 46.70 40.72 45.94Q39.99 45.18 38.59 45.18L38.59 45.18Q37.61 45.18 36.74 45.62Q35.87 46.05 35.37 46.78Q34.87 47.51 34.87 48.38L34.87 48.38L34.87 55.35Q34.87 56.36 34.18 56.80Q33.49 57.25 32.07 57.25L32.07 57.25ZM53.04 57.25Q51.27 57.25 49.87 56.61Q48.47 55.96 47.68 54.83Q46.88 53.70 46.88 52.30L46.88 52.30L46.88 47.90Q46.88 46.47 47.66 45.30Q48.45 44.12 49.85 43.43Q51.25 42.75 53.04 42.75L53.04 42.75Q54.83 42.75 56.23 43.43Q57.63 44.12 58.43 45.30Q59.23 46.47 59.23 47.90L59.23 47.90L59.23 52.30Q59.23 53.70 58.43 54.83Q57.63 55.96 56.22 56.61Q54.80 57.25 53.04 57.25L53.04 57.25ZM53.04 54.84Q54.63 54.84 55.56 54.10Q56.48 53.36 56.48 52.13L56.48 52.13L56.48 48.01Q56.48 46.72 55.54 45.94Q54.61 45.16 53.04 45.16L53.04 45.16Q51.47 45.16 50.53 45.94Q49.59 46.72 49.59 48.01L49.59 48.01L49.59 52.13Q49.59 53.36 50.52 54.10Q51.44 54.84 53.04 54.84L53.04 54.84ZM66.51 57.25Q64.35 57.25 63.29 56.06Q62.22 54.87 62.22 52.94L62.22 52.94L62.22 39.05Q62.22 38.04 62.91 37.60Q63.59 37.15 65.02 37.15L65.02 37.15L65.02 52.83Q65.02 53.89 65.46 54.35Q65.89 54.82 66.90 54.82L66.90 54.82Q67.93 54.82 68.86 54.28L68.86 54.28Q69.28 54.76 69.28 55.40L69.28 55.40Q69.28 56.13 68.54 56.69Q67.79 57.25 66.51 57.25L66.51 57.25ZM76.00 57.25Q73.67 57.25 72.19 55.98Q70.71 54.70 70.71 52.58L70.71 52.58Q70.71 50.42 72.27 49.13Q73.84 47.84 76.33 47.84L76.33 47.84Q78.97 47.84 80.67 49.64L80.67 49.64L80.79 49.52Q80.42 49.13 80.03 48.80L80.03 48.80L80.03 47.84Q80.03 46.50 79.16 45.76Q78.29 45.02 76.73 45.02L76.73 45.02Q73.90 45.02 72.64 47.20L72.64 47.20Q72.11 46.98 71.78 46.57Q71.46 46.16 71.46 45.74L71.46 45.74Q71.46 44.96 72.22 44.27Q72.97 43.59 74.23 43.17Q75.49 42.75 76.92 42.75L76.92 42.75Q79.67 42.75 81.23 44.09Q82.80 45.44 82.80 47.76L82.80 47.76L82.80 55.21Q82.80 56.27 82.16 56.76Q81.51 57.25 80.17 57.25L80.17 57.25L80.17 55.99Q80.76 55.35 80.81 55.26L80.81 55.26L80.70 55.15Q79.78 56.22 78.64 56.73Q77.51 57.25 76.00 57.25L76.00 57.25ZM76.59 55.12Q78.24 55.12 79.16 54.45Q80.09 53.78 80.09 52.58L80.09 52.58Q80.09 51.37 79.16 50.67Q78.24 49.97 76.64 49.97L76.64 49.97Q75.16 49.97 74.29 50.67Q73.42 51.37 73.42 52.58L73.42 52.58Q73.42 53.78 74.26 54.45Q75.10 55.12 76.59 55.12L76.59 55.12ZM87.73 57.25L87.73 45.18L85.43 45.18Q85.43 43 86.92 43L86.92 43L87.73 43L87.73 41.49Q87.73 39.58 88.81 38.37Q89.89 37.15 92.04 37.15L92.04 37.15Q93.36 37.15 94.06 37.72Q94.76 38.30 94.76 39.00L94.76 39.00Q94.76 39.70 94.31 40.12L94.31 40.12Q93.41 39.58 92.38 39.58L92.38 39.58Q91.37 39.58 90.94 40.07Q90.50 40.56 90.50 41.60L90.50 41.60L90.50 43L94.06 43Q94.06 44.12 93.58 44.65Q93.11 45.18 92.13 45.18L92.13 45.18L90.50 45.18L90.50 55.35Q90.50 56.33 89.82 56.79Q89.13 57.25 87.73 57.25L87.73 57.25Z" fill="#fff"></path></svg>